<svg xmlns="http://www.w3.org/2000/svg" viewBox="0 0 55 55"><defs><style>.cls-1{fill:#842a32;}.cls-2{fill:#d99234;}</style></defs><g id="Layer_3" data-name="Layer 3"><rect class="cls-1" x="2.72" y="2.8" width="49.56" height="49.56" rx="2.11"/><path class="cls-2" d="M10.44,5.68,10.31,21.6c0,2.11-.74,3.16-2.22,3.16a2.54,2.54,0,0,1-1.66-.56,1.7,1.7,0,0,1-.69-1.36,4.87,4.87,0,0,1,.2-1.2l.88-.24a6,6,0,0,0-.2,1.25c0,.91.27,1.36.81,1.36.31,0,.47-.43.47-1.27L8.09,5.68Z"/><path class="cls-2" d="M15,5.68l2.5,17.45-2.33.35-.72-5.63L12.36,18l-1,6-.9.24L13.14,5.68Zm-2,9.84,1.45-.24-.73-6.22Z"/><path class="cls-2" d="M24.7,5.68v.75L21.29,21.92H25v.83L18.3,23V21.9L22,6.51H18.6V5.68Z"/><path class="cls-2" d="M31.87,5.68v.75l-3.44,15.2,3.74.27V23l-6.7-.22V21.43L29.15,6.51H25.77V5.68Z"/><path class="cls-2" d="M36.59,23.48l.16-17.8h3.7c1.9,0,2.7.69,2.86,2,.29,2.57-.58,6.5-1.73,6.78,1.39.27,2.33,3.89,1.92,6.76-.2,1.46-.92,2.79-2.79,2.79Zm2.57-9.26h.75c1.66-.77,1-5.43,1-6.45s-.37-1.4-1.1-1.4h-.68ZM39,22.79h.68c.91,0,1.36-.52,1.36-1.55s.64-5.52-1.24-6.34h-.65Z"/><path class="cls-2" d="M49.7,5.68l-2,5.24.07,14.83-2.42-.63-.06-14.2L43,5.68h2.51l1.69,4,1.53-4Z"/><path class="cls-2" d="M8.16,37.59V49.48H5.74V26.92l2.41-.66,0,8.73h2l0-9.17,2.42-.48V49.48H10.12V37.59Z"/><path class="cls-2" d="M21.39,24.28v1l-3,.42v8.91h2.5V36.8h-2.5l-.25,11.76h3.48v.84h-5.9L16,24.84Z"/><path class="cls-2" d="M29.24,24.2l2.25,25.28H28.68l-1-12.56H26.37L25.15,49.48H23.8L26.23,24.2Zm-2.63,10,1,0-.32-7.62Z"/><path class="cls-2" d="M34.27,49.48l.07-24.14h3.58a3.82,3.82,0,0,1,2.23.59A1.85,1.85,0,0,1,41,27.51c0,1,.78,8.93-1.81,9.05a2.35,2.35,0,0,1,1.25,1.25c.38,1.83.21,9.1.26,9.82a3.9,3.9,0,0,0,.47,1.85H38.53A3.76,3.76,0,0,1,38.28,48v-.5l0-9.35c0-1-.38-1.44-1.16-1.44h-.41l0,12.73ZM36.75,34.7h1.5c.92,0,.76-5.56.76-6.51a2.13,2.13,0,0,0-1.77-2.08h-.49Z"/><path class="cls-2" d="M49.57,27.84v.95l-2-.5V49.48H45V27.56l-1.9-.51.09-.92Z"/></g></svg>
